{"title":"Gana Bajana (2010) Kannada ","uid":6466205,"size":676436179,"categoryP":"video","categoryS":"movies","magnet":"?xt=urn:btih:03e7427e3985eebc46ba6a4c0382c221c50b15be&amp;dn=Gana+Bajana+%282010%29+Kannada+&amp;tr=udp%3A%2F%2Ftracker.openbittorrent.com%3A80&amp;tr=udp%3A%2F%2Fopen.demonii.com%3A1337&amp;tr=udp%3A%2F%2Ftracker.coppersurfer.tk%3A6969&amp;tr=udp%3A%2F%2Fexodus.desync.com%3A6969","seeders":0,"leechers":1,"uploader":"anilkumar_123456","files":2,"time":1307925440,"description":"The story is not at all interesting and different. Radha (Radhika Pandit) and Krish (Tarun) are grandchildren of two gray haired one foot in the grave old friends CR Simha and Raja Rao. The grandfathers want the relationship to come up from their grand children. Raja Rao staying in abroad send urgent message on his ill health. So CR Simha, Radha and her family members rush. On a foreign locale Radha meets Krish a dancer. Krish is bowled over Radha beauty but it is Radha who has developed a different habit. She wants to marry a rowdy who is rough and tough. Radha also a dancer is tutor to Kuttappa (Dilipraj) a rowdy and she wants him to propose. When Krish comes to India he lives in the house of Radha. Radha is firm in her decision but the enormous love extended by Krish she pity him. On the other hand Kuttappa a rowdy proposes his love to another teacher in the dance school. Radha shifts her love to Krish\n\nRating: 2/5\n\nBanner: Nim Cinema\nCast: Tarun, Radhika Pandit, Dilipraj, Sharan, Yashwanth Sardeshpande, CR Simha, Raja Rao, Manjunath Hegde, ML Lakshmi Devi and others.\nProducer: Naveen\nStory, Screenplay, Direction: Prashanthraj\nMusic: Joshua Sridhar\nCinematography: Shekar\n\nGeneral\n      \n      Format : MPEG-4\n      Codec ID : M4V \n      File size : 645 MiB\n      Duration : 2h 0mn\n      Overall bit rate : 750 Kbps\n      Encoded date : UTC 2011-06-13 06:59:28\n      Tagged date : UTC 2011-06-13 06:59:28\n      Writing application : Lavf52.78.5\n      \n   Video \n      ID : 1\n      Format : AVC\n      Format/Info : Advanced Video Codec\n      Format profile : &lt;a class=&quot;__cf_email__&quot; href=&quot;/cdn-cgi/l/email-protection&quot; data-cfemail=&quot;185a796b7d7471767d58542b3628&quot;&gt;[email&amp;#160;protected]&lt;/a&gt;&lt;script cf-hash='f9e31' type=&quot;text/javascript&quot;&gt;\n/* &lt;![CDATA[ */!function(){try{var t=&quot;currentScript&quot;in document?document.currentScript:function(){for(var t=document.getElementsByTagName(&quot;script&quot;),e=t.length;e--;)if(t[e].getAttribute(&quot;cf-hash&quot;))return t[e]}();if(t&amp;&amp;t.previousSibling){var e,r,n,i,c=t.previousSibling,a=c.getAttribute(&quot;data-cfemail&quot;);if(a){for(e=&quot;&quot;,r=parseInt(a.substr(0,2),16),n=2;a.length-n;n+=2)i=parseInt(a.substr(n,2),16)^r,e+=String.fromCharCode(i);e=document.createTextNode(e),c.parentNode.replaceChild(e,c)}}}catch(u){}}();/* ]]&gt; */&lt;/script&gt;\n      Format settings, CABAC : No\n      Format settings, ReFrames : 1 frame\n      Codec ID : avc1\n      Codec ID/Info : Advanced Video Coding\n      Duration : 2h 0mn\n      Bit rate mode : Variable\n      Bit rate : 618 Kbps\n      Nominal bit rate : 600 Kbps\n      Width : 480 pixels\n      Height : 320 pixels\n      Display aspect ratio : 4:3\n      Frame rate mode : Constant\n      Frame rate : 25.000 fps\n      Resolution : 24 bits\n      Colorimetry : 4:2:0\n      Scan type : Progressive\n      Bits/(Pixel*Frame) : 0.161\n      Stream size : 531 MiB (82%)\n      Writing library : x264 core 100\n\n     \n       Audio\n      Format : AAC\n      Format/Info : Advanced Audio Codec\n      Format version : Version 4\n      Format profile : LC\n      Format settings, SBR : No\n      Codec ID : 40\n      Duration : 2h 0mn\n      Bit rate mode : Variable\n      Bit rate : 128 Kbps\n      Channel(s) : 2 channels\n      Channel positions : L R\n      Sampling rate : 44.1 KHz\n      Resolution : 16 bits\n      Stream size : 110 MiB (17%)\n      Encoded date : UTC 2011-06-13 06:59:28\n      Tagged date : UTC 2011-06-13\n\nScreen\n\n &lt;a href=&quot; http://savesnap.com/images/g4.jpg&quot; rel=&quot;nofollow&quot; target=&quot;_NEW&quot;&gt; http://savesnap.com/images/g4.jpg&lt;/a&gt;\n","torrent":{"xt":"urn:btih:03e7427e3985eebc46ba6a4c0382c221c50b15be","amp;dn":"Gana+Bajana+%282010%29+Kannada+","amp;tr":["udp%3A%2F%2Ftracker.openbittorrent.com%3A80","udp%3A%2F%2Fopen.demonii.com%3A1337","udp%3A%2F%2Ftracker.coppersurfer.tk%3A6969","udp%3A%2F%2Fexodus.desync.com%3A6969"],"infoHash":"03e7427e3985eebc46ba6a4c0382c221c50b15be","infoHashBuffer":{"type":"Buffer","data":[3,231,66,126,57,133,238,188,70,186,106,76,3,130,194,33,197,11,21,190]},"announce":[],"urlList":[]}}